<mxfile host="www.draw.io" modified="2020-01-12T09:58:20.626Z" agent="Mozilla/5.0 (Windows NT 6.1; Win64; x64) AppleWebKit/537.36 (KHTML, like Gecko) Chrome/79.0.3945.117 Safari/537.36" etag="-wbrksbn4Vd8bqT_6Qvu" version="12.5.1" type="github">
  <diagram id="gYqOYC05eTUMbnPOUZzg" name="Page-1">
    <mxGraphModel dx="2249" dy="802" grid="1" gridSize="10" guides="1" tooltips="1" connect="1" arrows="1" fold="1" page="1" pageScale="1" pageWidth="827" pageHeight="1169" math="0" shadow="0">
      <root>
        <mxCell id="0"/>
        <mxCell id="1" parent="0"/>
        <mxCell id="Qmx-vTjYsITCvrtl_uVx-1" value="appA" style="ellipse;whiteSpace=wrap;html=1;aspect=fixed;fontFamily=Lucida Console;fontSize=15;fillColor=#60a917;strokeColor=#2D7600;fontColor=#ffffff;align=center;" parent="1" vertex="1">
          <mxGeometry x="-480" y="320" width="110" height="110" as="geometry"/>
        </mxCell>
        <mxCell id="Qmx-vTjYsITCvrtl_uVx-2" value="appB" style="ellipse;whiteSpace=wrap;html=1;aspect=fixed;fontFamily=Lucida Console;fontSize=15;fillColor=#60a917;strokeColor=#2D7600;fontColor=#ffffff;align=center;" parent="1" vertex="1">
          <mxGeometry x="1060" y="717" width="110" height="110" as="geometry"/>
        </mxCell>
        <mxCell id="Qmx-vTjYsITCvrtl_uVx-3" value="" style="aspect=fixed;html=1;points=[];align=center;image;fontSize=12;image=img/lib/mscae/Database_General.svg;" parent="1" vertex="1">
          <mxGeometry x="-240" y="460" width="76" height="100" as="geometry"/>
        </mxCell>
        <mxCell id="Qmx-vTjYsITCvrtl_uVx-6" value="&lt;font style=&quot;font-size: 18px&quot;&gt;NotifyAgent&lt;/font&gt;" style="rounded=0;whiteSpace=wrap;html=1;absoluteArcSize=1;arcSize=0;strokeColor=#FD0000;fillColor=none;verticalAlign=top;align=center;spacingLeft=5;dashed=1;labelPosition=center;verticalLabelPosition=bottom;strokeWidth=2;" parent="1" vertex="1">
          <mxGeometry x="-360" y="110" width="1420" height="470" as="geometry"/>
        </mxCell>
        <mxCell id="Qmx-vTjYsITCvrtl_uVx-7" value="" style="rounded=1;arcSize=10;dashed=1;strokeColor=#56517e;fillColor=#d0cee2;dashPattern=8 3 1 3;strokeWidth=2;align=left;" parent="1" vertex="1">
          <mxGeometry x="776" y="190" width="130" height="346.5" as="geometry"/>
        </mxCell>
        <mxCell id="Qmx-vTjYsITCvrtl_uVx-31" value="" style="aspect=fixed;perimeter=ellipsePerimeter;html=1;align=center;shadow=0;dashed=0;fontColor=#4277BB;labelBackgroundColor=#ffffff;fontSize=12;spacingTop=3;image;image=img/lib/ibm/social/messaging.svg;" parent="1" vertex="1">
          <mxGeometry x="-410" y="730" width="30" height="30" as="geometry"/>
        </mxCell>
        <mxCell id="hsNvUKS2LLJ66I7GdiUk-1" value="" style="rounded=1;whiteSpace=wrap;html=1;fillColor=#cce5ff;strokeColor=#36393d;" vertex="1" parent="1">
          <mxGeometry x="-260" y="300" width="490" height="65" as="geometry"/>
        </mxCell>
        <mxCell id="hsNvUKS2LLJ66I7GdiUk-4" value="" style="aspect=fixed;perimeter=ellipsePerimeter;html=1;align=center;shadow=0;dashed=0;fontColor=#4277BB;labelBackgroundColor=#ffffff;fontSize=12;spacingTop=3;image;image=img/lib/ibm/social/messaging.svg;" vertex="1" parent="1">
          <mxGeometry x="-230" y="220" width="30" height="30" as="geometry"/>
        </mxCell>
        <mxCell id="hsNvUKS2LLJ66I7GdiUk-5" value="MQ&lt;b&gt;:&lt;/b&gt;Notify" style="text;html=1;align=center;verticalAlign=middle;resizable=0;points=[];autosize=1;fontSize=16;" vertex="1" parent="1">
          <mxGeometry x="-114" y="370" width="90" height="20" as="geometry"/>
        </mxCell>
        <mxCell id="hsNvUKS2LLJ66I7GdiUk-11" value="Process poll" style="text;html=1;align=center;verticalAlign=middle;resizable=0;points=[];autosize=1;fontSize=16;" vertex="1" parent="1">
          <mxGeometry x="780" y="190" width="100" height="20" as="geometry"/>
        </mxCell>
        <mxCell id="hsNvUKS2LLJ66I7GdiUk-13" value="Daemon&lt;br&gt;" style="text;html=1;align=center;verticalAlign=middle;resizable=0;points=[];autosize=1;fontSize=16;" vertex="1" parent="1">
          <mxGeometry x="410" y="608" width="80" height="20" as="geometry"/>
        </mxCell>
        <mxCell id="hsNvUKS2LLJ66I7GdiUk-14" value="Client&lt;br&gt;" style="text;html=1;align=center;verticalAlign=middle;resizable=0;points=[];autosize=1;fontSize=16;" vertex="1" parent="1">
          <mxGeometry x="-134" y="608" width="60" height="20" as="geometry"/>
        </mxCell>
        <mxCell id="hsNvUKS2LLJ66I7GdiUk-17" value="main" style="ellipse;whiteSpace=wrap;html=1;fontSize=16;fillColor=#e3c800;strokeColor=#B09500;fontColor=#ffffff;" vertex="1" parent="1">
          <mxGeometry x="340" y="312.5" width="70" height="40" as="geometry"/>
        </mxCell>
        <mxCell id="hsNvUKS2LLJ66I7GdiUk-18" value="notify1&lt;br style=&quot;font-size: 12px;&quot;&gt;{queueName:Q1}" style="text;html=1;align=center;verticalAlign=middle;resizable=0;points=[];autosize=1;fontSize=12;" vertex="1" parent="1">
          <mxGeometry x="-270" y="253.5" width="110" height="30" as="geometry"/>
        </mxCell>
        <mxCell id="hsNvUKS2LLJ66I7GdiUk-21" value="" style="aspect=fixed;perimeter=ellipsePerimeter;html=1;align=center;shadow=0;dashed=0;fontColor=#4277BB;labelBackgroundColor=#ffffff;fontSize=12;spacingTop=3;image;image=img/lib/ibm/social/messaging.svg;" vertex="1" parent="1">
          <mxGeometry y="220" width="30" height="30" as="geometry"/>
        </mxCell>
        <mxCell id="hsNvUKS2LLJ66I7GdiUk-22" value="notify1&lt;br style=&quot;font-size: 12px;&quot;&gt;{queueName:Q1}" style="text;html=1;align=center;verticalAlign=middle;resizable=0;points=[];autosize=1;fontSize=12;" vertex="1" parent="1">
          <mxGeometry x="-30" y="253.5" width="110" height="30" as="geometry"/>
        </mxCell>
        <mxCell id="hsNvUKS2LLJ66I7GdiUk-23" value="" style="aspect=fixed;perimeter=ellipsePerimeter;html=1;align=center;shadow=0;dashed=0;fontColor=#4277BB;labelBackgroundColor=#ffffff;fontSize=12;spacingTop=3;image;image=img/lib/ibm/social/messaging.svg;" vertex="1" parent="1">
          <mxGeometry x="-94" y="223.5" width="30" height="30" as="geometry"/>
        </mxCell>
        <mxCell id="hsNvUKS2LLJ66I7GdiUk-24" value="notify1&lt;br style=&quot;font-size: 12px;&quot;&gt;{queueName:Q1}" style="text;html=1;align=center;verticalAlign=middle;resizable=0;points=[];autosize=1;fontSize=12;" vertex="1" parent="1">
          <mxGeometry x="-134" y="253.5" width="110" height="30" as="geometry"/>
        </mxCell>
        <mxCell id="hsNvUKS2LLJ66I7GdiUk-28" value="" style="rounded=1;whiteSpace=wrap;html=1;fillColor=#cce5ff;strokeColor=#36393d;" vertex="1" parent="1">
          <mxGeometry x="530" y="230" width="130" height="47" as="geometry"/>
        </mxCell>
        <mxCell id="hsNvUKS2LLJ66I7GdiUk-29" value="" style="aspect=fixed;perimeter=ellipsePerimeter;html=1;align=center;shadow=0;dashed=0;fontColor=#4277BB;labelBackgroundColor=#ffffff;fontSize=12;spacingTop=3;image;image=img/lib/ibm/social/messaging.svg;" vertex="1" parent="1">
          <mxGeometry x="600" y="230" width="30" height="30" as="geometry"/>
        </mxCell>
        <mxCell id="hsNvUKS2LLJ66I7GdiUk-30" value="notify1&lt;br style=&quot;font-size: 12px&quot;&gt;" style="text;html=1;align=center;verticalAlign=middle;resizable=0;points=[];autosize=1;fontSize=12;" vertex="1" parent="1">
          <mxGeometry x="590" y="257" width="50" height="20" as="geometry"/>
        </mxCell>
        <mxCell id="hsNvUKS2LLJ66I7GdiUk-31" value="" style="rounded=1;whiteSpace=wrap;html=1;fillColor=#cce5ff;strokeColor=#36393d;" vertex="1" parent="1">
          <mxGeometry x="-304" y="830" width="170" height="65" as="geometry"/>
        </mxCell>
        <mxCell id="hsNvUKS2LLJ66I7GdiUk-32" value="" style="aspect=fixed;perimeter=ellipsePerimeter;html=1;align=center;shadow=0;dashed=0;fontColor=#4277BB;labelBackgroundColor=#ffffff;fontSize=12;spacingTop=3;image;image=img/lib/ibm/social/messaging.svg;" vertex="1" parent="1">
          <mxGeometry x="-280" y="830" width="30" height="30" as="geometry"/>
        </mxCell>
        <mxCell id="hsNvUKS2LLJ66I7GdiUk-33" value="notify1&lt;br style=&quot;font-size: 12px;&quot;&gt;{queueName:Q1}" style="text;html=1;align=center;verticalAlign=middle;resizable=0;points=[];autosize=1;fontSize=12;" vertex="1" parent="1">
          <mxGeometry x="-290" y="865" width="110" height="30" as="geometry"/>
        </mxCell>
        <mxCell id="hsNvUKS2LLJ66I7GdiUk-34" value="Q1" style="text;html=1;align=center;verticalAlign=middle;resizable=0;points=[];autosize=1;fontSize=12;" vertex="1" parent="1">
          <mxGeometry x="-258" y="762" width="30" height="20" as="geometry"/>
        </mxCell>
        <mxCell id="hsNvUKS2LLJ66I7GdiUk-36" value="" style="edgeStyle=orthogonalEdgeStyle;fontSize=12;html=1;endArrow=blockThin;endFill=1;rounded=0;strokeWidth=2;endSize=4;startSize=4;dashed=0;strokeColor=#4284F3;" edge="1" parent="1">
          <mxGeometry width="100" relative="1" as="geometry">
            <mxPoint x="240" y="332" as="sourcePoint"/>
            <mxPoint x="340" y="332" as="targetPoint"/>
            <Array as="points">
              <mxPoint x="270" y="332"/>
              <mxPoint x="270" y="332"/>
            </Array>
          </mxGeometry>
        </mxCell>
        <mxCell id="hsNvUKS2LLJ66I7GdiUk-41" value="get" style="text;html=1;align=center;verticalAlign=middle;resizable=0;points=[];labelBackgroundColor=#ffffff;fontSize=12;" vertex="1" connectable="0" parent="hsNvUKS2LLJ66I7GdiUk-36">
          <mxGeometry x="-0.24" y="3" relative="1" as="geometry">
            <mxPoint x="24" as="offset"/>
          </mxGeometry>
        </mxCell>
        <mxCell id="hsNvUKS2LLJ66I7GdiUk-42" value="" style="edgeStyle=orthogonalEdgeStyle;fontSize=12;html=1;endArrow=blockThin;endFill=1;rounded=0;strokeWidth=2;endSize=4;startSize=4;dashed=0;strokeColor=#4284F3;" edge="1" parent="1">
          <mxGeometry width="100" relative="1" as="geometry">
            <mxPoint x="410" y="332" as="sourcePoint"/>
            <mxPoint x="480" y="332" as="targetPoint"/>
          </mxGeometry>
        </mxCell>
        <mxCell id="hsNvUKS2LLJ66I7GdiUk-43" value="put" style="text;html=1;align=center;verticalAlign=middle;resizable=0;points=[];labelBackgroundColor=#ffffff;fontSize=12;" vertex="1" connectable="0" parent="hsNvUKS2LLJ66I7GdiUk-42">
          <mxGeometry x="-0.22" relative="1" as="geometry">
            <mxPoint as="offset"/>
          </mxGeometry>
        </mxCell>
        <mxCell id="hsNvUKS2LLJ66I7GdiUk-46" value="" style="line;strokeWidth=2;direction=south;html=1;fontSize=12;align=left;fillColor=#dae8fc;strokeColor=#4284F3;" vertex="1" parent="1">
          <mxGeometry x="475" y="250" width="10" height="130" as="geometry"/>
        </mxCell>
        <mxCell id="hsNvUKS2LLJ66I7GdiUk-48" value="" style="edgeStyle=orthogonalEdgeStyle;fontSize=12;html=1;endArrow=blockThin;endFill=1;rounded=0;strokeWidth=2;endSize=4;startSize=4;dashed=0;strokeColor=#4284F3;" edge="1" parent="1">
          <mxGeometry width="100" relative="1" as="geometry">
            <mxPoint x="480" y="250" as="sourcePoint"/>
            <mxPoint x="530" y="250" as="targetPoint"/>
          </mxGeometry>
        </mxCell>
        <mxCell id="hsNvUKS2LLJ66I7GdiUk-49" value="" style="endArrow=classic;html=1;fontSize=12;" edge="1" parent="1">
          <mxGeometry width="50" height="50" relative="1" as="geometry">
            <mxPoint x="-480" y="1120" as="sourcePoint"/>
            <mxPoint x="-430" y="1070" as="targetPoint"/>
          </mxGeometry>
        </mxCell>
        <mxCell id="hsNvUKS2LLJ66I7GdiUk-50" value="" style="edgeStyle=orthogonalEdgeStyle;fontSize=12;html=1;endArrow=blockThin;endFill=1;rounded=0;strokeWidth=2;endSize=4;startSize=4;dashed=0;strokeColor=#4284F3;" edge="1" parent="1">
          <mxGeometry width="100" relative="1" as="geometry">
            <mxPoint x="480" y="312.5" as="sourcePoint"/>
            <mxPoint x="530" y="312.5" as="targetPoint"/>
          </mxGeometry>
        </mxCell>
        <mxCell id="hsNvUKS2LLJ66I7GdiUk-51" value="" style="edgeStyle=orthogonalEdgeStyle;fontSize=12;html=1;endArrow=blockThin;endFill=1;rounded=0;strokeWidth=2;endSize=4;startSize=4;dashed=0;strokeColor=#4284F3;entryX=0;entryY=0.5;entryDx=0;entryDy=0;" edge="1" parent="1" target="hsNvUKS2LLJ66I7GdiUk-59">
          <mxGeometry width="100" relative="1" as="geometry">
            <mxPoint x="475" y="374.5" as="sourcePoint"/>
            <mxPoint x="525" y="374.5" as="targetPoint"/>
            <Array as="points">
              <mxPoint x="510" y="375"/>
              <mxPoint x="510" y="380"/>
            </Array>
          </mxGeometry>
        </mxCell>
        <mxCell id="hsNvUKS2LLJ66I7GdiUk-55" value="MQ1" style="text;html=1;align=center;verticalAlign=middle;resizable=0;points=[];autosize=1;fontSize=12;" vertex="1" parent="1">
          <mxGeometry x="540" y="250" width="40" height="20" as="geometry"/>
        </mxCell>
        <mxCell id="hsNvUKS2LLJ66I7GdiUk-59" value="" style="rounded=1;whiteSpace=wrap;html=1;fillColor=#cce5ff;strokeColor=#36393d;" vertex="1" parent="1">
          <mxGeometry x="530" y="356.5" width="130" height="47" as="geometry"/>
        </mxCell>
        <mxCell id="hsNvUKS2LLJ66I7GdiUk-60" value="" style="edgeStyle=orthogonalEdgeStyle;fontSize=12;html=1;endArrow=blockThin;endFill=1;rounded=0;strokeWidth=2;endSize=4;startSize=4;dashed=0;strokeColor=#4284F3;entryX=0;entryY=0.5;entryDx=0;entryDy=0;" edge="1" parent="1" target="hsNvUKS2LLJ66I7GdiUk-82">
          <mxGeometry width="100" relative="1" as="geometry">
            <mxPoint x="660" y="259.5" as="sourcePoint"/>
            <mxPoint x="760" y="259.5" as="targetPoint"/>
            <Array as="points">
              <mxPoint x="780" y="260"/>
            </Array>
          </mxGeometry>
        </mxCell>
        <mxCell id="hsNvUKS2LLJ66I7GdiUk-71" value="" style="rounded=1;whiteSpace=wrap;html=1;fillColor=#cce5ff;strokeColor=#36393d;" vertex="1" parent="1">
          <mxGeometry x="530" y="291.5" width="130" height="47" as="geometry"/>
        </mxCell>
        <mxCell id="hsNvUKS2LLJ66I7GdiUk-75" value="PROCESS_DB" style="ellipse;whiteSpace=wrap;html=1;fontSize=14;fillColor=#e3c800;strokeColor=#B09500;fontColor=#ffffff;" vertex="1" parent="1">
          <mxGeometry x="780" y="460" width="110" height="56.5" as="geometry"/>
        </mxCell>
        <mxCell id="hsNvUKS2LLJ66I7GdiUk-80" value="PROCESS_3" style="ellipse;whiteSpace=wrap;html=1;fontSize=14;fillColor=#e3c800;strokeColor=#B09500;fontColor=#ffffff;" vertex="1" parent="1">
          <mxGeometry x="770" y="390" width="110" height="56.5" as="geometry"/>
        </mxCell>
        <mxCell id="hsNvUKS2LLJ66I7GdiUk-81" value="PROCESS_2" style="ellipse;whiteSpace=wrap;html=1;fontSize=14;fillColor=#e3c800;strokeColor=#B09500;fontColor=#ffffff;" vertex="1" parent="1">
          <mxGeometry x="780" y="313.5" width="110" height="56.5" as="geometry"/>
        </mxCell>
        <mxCell id="hsNvUKS2LLJ66I7GdiUk-82" value="PROCESS_1" style="ellipse;whiteSpace=wrap;html=1;fontSize=14;fillColor=#e3c800;strokeColor=#B09500;fontColor=#ffffff;" vertex="1" parent="1">
          <mxGeometry x="790" y="231.75" width="110" height="56.5" as="geometry"/>
        </mxCell>
        <mxCell id="hsNvUKS2LLJ66I7GdiUk-87" value="" style="edgeStyle=orthogonalEdgeStyle;fontSize=12;html=1;endArrow=blockThin;endFill=1;rounded=0;strokeWidth=2;endSize=4;startSize=4;dashed=0;strokeColor=#4284F3;" edge="1" parent="1">
          <mxGeometry width="100" relative="1" as="geometry">
            <mxPoint x="900" y="259.75" as="sourcePoint"/>
            <mxPoint x="1000" y="259.75" as="targetPoint"/>
            <Array as="points">
              <mxPoint x="970" y="259.75"/>
              <mxPoint x="970" y="259.75"/>
            </Array>
          </mxGeometry>
        </mxCell>
      </root>
    </mxGraphModel>
  </diagram>
</mxfile>
